<svg width="1440" height="2400" viewBox="0 0 1440 2400" fill="none" xmlns="http://www.w3.org/2000/svg">
  <defs>
    <linearGradient id="bg" x1="0" y1="0" x2="1440" y2="2400" gradientUnits="userSpaceOnUse">
      <stop stop-color="#0B0D10"/>
      <stop offset="0.55" stop-color="#0F1318"/>
      <stop offset="1" stop-color="#060709"/>
    </linearGradient>
    <linearGradient id="floor" x1="720" y1="1120" x2="720" y2="2400" gradientUnits="userSpaceOnUse">
      <stop stop-color="#10151B" stop-opacity="0.2"/>
      <stop offset="1" stop-color="#030405"/>
    </linearGradient>
    <radialGradient id="glowA" cx="0" cy="0" r="1" gradientUnits="userSpaceOnUse" gradientTransform="translate(1080 420) rotate(90) scale(320)">
      <stop stop-color="#FF6A00" stop-opacity="0.38"/>
      <stop offset="1" stop-color="#FF6A00" stop-opacity="0"/>
    </radialGradient>
    <radialGradient id="glowB" cx="0" cy="0" r="1" gradientUnits="userSpaceOnUse" gradientTransform="translate(360 780) rotate(90) scale(280)">
      <stop stop-color="#FF8B3D" stop-opacity="0.2"/>
      <stop offset="1" stop-color="#FF8B3D" stop-opacity="0"/>
    </radialGradient>
  </defs>
  <rect width="1440" height="2400" fill="url(#bg)"/>
  <rect width="1440" height="2400" fill="url(#glowA)"/>
  <rect width="1440" height="2400" fill="url(#glowB)"/>
  <g opacity="0.22" stroke="#A3ADBA" stroke-width="8">
    <path d="M96 360H1344"/>
    <path d="M96 700H1344"/>
    <path d="M96 1040H1344"/>
    <path d="M96 1380H1344"/>
    <path d="M96 1720H1344"/>
  </g>
  <g opacity="0.18" stroke="#A3ADBA" stroke-width="10">
    <path d="M180 180V1920"/>
    <path d="M420 180V1920"/>
    <path d="M720 180V1920"/>
    <path d="M1020 180V1920"/>
    <path d="M1260 180V1920"/>
  </g>
  <g opacity="0.15" fill="#1B232C">
    <rect x="80" y="320" width="240" height="160" rx="16"/>
    <rect x="380" y="560" width="320" height="220" rx="18"/>
    <rect x="890" y="600" width="410" height="260" rx="18"/>
    <rect x="210" y="1100" width="480" height="290" rx="18"/>
    <rect x="820" y="1180" width="420" height="250" rx="18"/>
  </g>
  <path d="M0 1340L1440 920V2400H0V1340Z" fill="url(#floor)"/>
  <g opacity="0.18" stroke="#FF6A00" stroke-width="16">
    <path d="M90 1480L1340 1060"/>
    <path d="M160 1640L1160 1280"/>
    <path d="M240 1800L980 1520"/>
  </g>
  <g opacity="0.2" fill="#D7DEE8">
    <circle cx="300" cy="1460" r="36"/>
    <rect x="282" y="1490" width="36" height="140" rx="18"/>
    <path d="M300 1560L246 1650" stroke="#D7DEE8" stroke-width="26" stroke-linecap="round"/>
    <path d="M300 1560L356 1642" stroke="#D7DEE8" stroke-width="26" stroke-linecap="round"/>
    <path d="M300 1632L250 1748" stroke="#D7DEE8" stroke-width="26" stroke-linecap="round"/>
    <path d="M300 1632L346 1742" stroke="#D7DEE8" stroke-width="26" stroke-linecap="round"/>
  </g>
  <g opacity="0.12" fill="#D7DEE8">
    <circle cx="920" cy="1320" r="34"/>
    <rect x="902" y="1350" width="36" height="140" rx="18"/>
    <path d="M920 1420L870 1510" stroke="#D7DEE8" stroke-width="24" stroke-linecap="round"/>
    <path d="M920 1420L968 1506" stroke="#D7DEE8" stroke-width="24" stroke-linecap="round"/>
    <path d="M920 1496L874 1604" stroke="#D7DEE8" stroke-width="24" stroke-linecap="round"/>
    <path d="M920 1496L962 1600" stroke="#D7DEE8" stroke-width="24" stroke-linecap="round"/>
  </g>
  <g opacity="0.1" fill="#D7DEE8">
    <circle cx="1120" cy="1500" r="32"/>
    <rect x="1104" y="1528" width="32" height="130" rx="16"/>
    <path d="M1120 1590L1070 1672" stroke="#D7DEE8" stroke-width="22" stroke-linecap="round"/>
    <path d="M1120 1590L1168 1668" stroke="#D7DEE8" stroke-width="22" stroke-linecap="round"/>
    <path d="M1120 1660L1080 1762" stroke="#D7DEE8" stroke-width="22" stroke-linecap="round"/>
    <path d="M1120 1660L1156 1760" stroke="#D7DEE8" stroke-width="22" stroke-linecap="round"/>
  </g>
</svg>
